<svg xmlns="http://www.w3.org/2000/svg" viewBox="0 0 512 512" role="img" aria-labelledby="title desc">
  <title id="title">TraveX logo</title>
  <desc id="desc">Travel badge with sky, sun, landmarks and wave.</desc>
  <defs>
    <linearGradient id="sky" x1="0" y1="0" x2="0" y2="1">
      <stop offset="0" stop-color="#0ea5e9"/>
      <stop offset="1" stop-color="#bae6fd"/>
    </linearGradient>
    <linearGradient id="sun" x1="0" y1="0" x2="0" y2="1">
      <stop offset="0" stop-color="#fb923c"/>
      <stop offset="1" stop-color="#facc15"/>
    </linearGradient>
    <linearGradient id="ring" x1="0" y1="0" x2="1" y2="1">
      <stop offset="0" stop-color="#f97316"/>
      <stop offset="0.48" stop-color="#fb923c"/>
      <stop offset="1" stop-color="#0f4c81"/>
    </linearGradient>
  </defs>
  <circle cx="256" cy="236" r="174" fill="#fff"/>
  <path d="M80 256c0-97.2 78.8-176 176-176 78.1 0 144.2 50.9 167.1 121.3C394.8 137.4 330.9 92 256 92 163.2 92 88 167.2 88 260c0 60.2 31.7 113 79.4 142.7C114.7 373.4 80 319.1 80 256Z" fill="url(#ring)"/>
  <path d="M107 238c8.9-75.2 72.9-133.6 149-133.6 70.6 0 129.8 48.7 145.8 114.3-45.6-15-95.9-4.3-132.4 28.4-44.2-20.4-98.1-15.2-138.3 14.6-7.4-7.9-15.4-15.8-24.1-23.7Z" fill="url(#sky)"/>
  <circle cx="270" cy="241" r="58" fill="url(#sun)"/>
  <path d="M147 304h71l-14-28h-43l-14 28Zm28-134 13 100h-26l13-100Zm-34 96h68l14 29H127l14-29Z" fill="#13213a"/>
  <path d="M329 194h24v95h34v28h-88v-28h30v-95Zm-12 31h48l-24-46-24 46Z" fill="#13213a"/>
  <path d="M229 300c19-38 40-59 63-66-27-4-52 3-75 21 1-29 12-53 34-71-29 8-49 26-61 54-11-22-28-36-52-42 18 20 25 42 21 67-22-13-45-16-70-9 31 14 55 29 71 46h69Z" fill="#14532d"/>
  <path d="M136 151c39-38 84-58 134-59 35-.7 70 9.4 104 30-42-12-81-12-117 1-37 13-77 23-121 28Z" fill="#fff" opacity=".72"/>
  <path d="M169 130l34 21 46-19c8-3 19-2 24 3 3 4 2 9-6 13l-40 18-6 32-17 8-8-30-30 12-13 20-12-4 7-22-23-6 11-11 24 2 20-18-25-13 14-8Z" fill="#fff"/>
  <path d="M68 335c69 20 134 17 195-9 64-28 125-29 182-3-61 7-112 25-153 54-56 39-130 43-224 12v-54Z" fill="#0ea5e9"/>
  <path d="M65 373c76 29 148 29 216 0 53-23 103-31 150-25-46 17-89 40-129 70-60 45-139 41-237-11v-34Z" fill="#f97316"/>
  <path d="M64 404c91 43 171 44 241 3 38-22 77-38 117-47-45 44-98 70-158 79-73 11-140-1-200-35Z" fill="#0f4c81"/>
</svg>
