<svg xmlns="http://www.w3.org/2000/svg" viewBox="0 0 512 512">
  <defs>
    <linearGradient id="sky" x1="0" y1="0" x2="0" y2="1">
      <stop offset="0" stop-color="#0ea5e9"/>
      <stop offset="1" stop-color="#bae6fd"/>
    </linearGradient>
    <linearGradient id="sun" x1="0" y1="0" x2="0" y2="1">
      <stop offset="0" stop-color="#fb923c"/>
      <stop offset="1" stop-color="#facc15"/>
    </linearGradient>
  </defs>
  <circle cx="256" cy="256" r="238" fill="#fff"/>
  <path d="M78 278c0-98 80-178 178-178 78 0 145 51 168 122-32-51-89-84-154-84-94 0-170 76-170 170 0 35 11 68 29 95-32-32-51-76-51-125Z" fill="#f97316"/>
  <path d="M106 236c11-70 74-124 150-124 72 0 132 50 148 117-47-15-96-3-134 28-42-21-96-16-138 14-8-11-17-22-26-35Z" fill="url(#sky)"/>
  <circle cx="272" cy="250" r="56" fill="url(#sun)"/>
  <path d="M151 306h74l-15-30h-44l-15 30Zm36-136 13 100h-27l14-100Z" fill="#13213a"/>
  <path d="M326 195h25v97h35v29h-91v-29h31v-97Zm-12 33h50l-25-48-25 48Z" fill="#13213a"/>
  <path d="M228 305c18-39 40-62 66-70-29-5-55 3-79 23 1-31 13-56 36-75-31 8-52 28-64 58-12-24-30-39-55-45 19 22 26 45 22 72-24-15-49-18-75-10 33 15 58 31 75 47h74Z" fill="#14532d"/>
  <path d="M157 131l35 22 47-20c8-3 19-2 24 3 4 4 2 10-6 14l-41 19-6 32-17 8-8-31-31 12-14 21-12-4 8-23-24-6 12-12 25 2 20-18-26-14 14-5Z" fill="#fff"/>
  <path d="M67 338c70 21 137 18 199-9 65-29 127-30 184-4-61 8-113 27-155 56-58 40-133 44-228 12v-55Z" fill="#0ea5e9"/>
  <path d="M66 376c77 29 150 29 219 0 54-23 105-31 153-25-47 18-91 42-132 72-61 46-141 42-240-11v-36Z" fill="#f97316"/>
  <path d="M65 407c92 44 174 45 245 3 39-23 79-39 120-48-46 45-100 72-161 81-74 11-142-1-204-36Z" fill="#0f4c81"/>
</svg>
